<svg
    xmlns="http://www.w3.org/2000/svg"
    width="64"
    height="64"
    viewBox="0 0 64 64"
    fill="none"
>
    <path
        d="M32 0C14.326 0 0 14.326 0 32c0 11.193 5.866 21.315 14.747 27.045a2 2 0 0 0 2.506-.654l3.752-5.628a2 2 0 0 1 1.668-.841h26.654a2 2 0 0 1 1.668.841l3.752 5.628a2 2 0 0 0 2.506.654C58.134 53.315 64 43.193 64 32 64 14.326 49.674 0 32 0zm-4 48a2 2 0 0 1-2-2V14a2 2 0 1 1 4 0v32a2 2 0 0 1-2 2zm6 0a2 2 0 0 1-2-2V10a2 2 0 1 1 4 0v36a2 2 0 0 1-2 2zm6 0a2 2 0 0 1-2-2V14a2 2 0 1 1 4 0v32a2 2 0 0 1-2 2z"
        fill="#000"
    />
</svg>